<svg width="18" height="18" viewBox="0 0 18 18" fill="none" xmlns="http://www.w3.org/2000/svg">
<path fill-rule="evenodd" clip-rule="evenodd" d="M11.9649 11.255H12.7549L17.7449 16.255L16.2549 17.745L11.2549 12.755V11.965L10.9849 11.685C9.84488 12.665 8.36488 13.255 6.75488 13.255C3.16492 13.255 0.254883 10.345 0.254883 6.75501C0.254883 3.16502 3.16492 0.255005 6.75488 0.255005C10.3449 0.255005 13.2549 3.16502 13.2549 6.75501C13.2549 8.36501 12.6649 9.84501 11.685 10.985L11.9649 11.255ZM2.25488 6.75501C2.25488 9.24501 4.26489 11.255 6.75488 11.255C9.24488 11.255 11.2549 9.24501 11.2549 6.75501C11.2549 4.26502 9.24488 2.25501 6.75488 2.25501C4.26489 2.25501 2.25488 4.26502 2.25488 6.75501Z" fill="#052B32"/>
</svg>
